<?xml version="1.0" encoding="utf-8"?>
<!-- Generator: Adobe Illustrator 23.0.6, SVG Export Plug-In . SVG Version: 6.00 Build 0)  -->
<svg version="1.1" id="Layer_1" xmlns="http://www.w3.org/2000/svg" xmlns:xlink="http://www.w3.org/1999/xlink" x="0px" y="0px"
	 viewBox="0 0 595.3 841.9" style="enable-background:new 0 0 595.3 841.9;" xml:space="preserve">
<style type="text/css">
	.st0{fill:none;stroke:#C8C8D2;stroke-linecap:square;stroke-miterlimit:10;}
	.st1{fill:#0000B2;}
	.st2{fill:#002297;}
	.st3{font-family:'ArialMT';}
	.st4{font-size:7px;}
	.st5{fill:none;stroke:#FFFFFF;stroke-linecap:square;stroke-miterlimit:10;}
	.st6{fill:none;stroke:#0000B2;stroke-linecap:square;stroke-miterlimit:10;}
	.st7{fill:none;stroke:#0000FF;stroke-linecap:square;stroke-miterlimit:10;}
	.st8{clip-path:url(#SVGID_3_);}
	.st9{clip-path:url(#SVGID_4_);fill:#FFFFFF;}
	.st10{clip-path:url(#SVGID_7_);}
	.st11{clip-path:url(#SVGID_8_);fill-rule:evenodd;clip-rule:evenodd;fill:#666666;}
	.st12{fill:#FAFAFA;}
	.st13{fill:none;}
	.st14{font-size:3.1894px;}
	.st15{fill-rule:evenodd;clip-rule:evenodd;}
	.st16{fill-rule:evenodd;clip-rule:evenodd;fill:#666666;}
	.st17{clip-path:url(#SVGID_10_);fill:#FAFAFA;}
	.st18{clip-path:url(#SVGID_12_);fill:none;stroke:#000000;stroke-linecap:square;stroke-miterlimit:10;}
	.st19{font-family:'Arial-BoldMT';}
	.st20{font-size:3.5881px;}
	.st21{fill:none;stroke:#000000;stroke-linecap:square;stroke-miterlimit:10;}
	.st22{font-size:4.7842px;}
</style>
<g>
	<g transform="translate(183,369)">
		<g>
			<path class="st0" d="M-110-221.9"/>
		</g>
		<g>
			<path class="st0" d="M358.8-225.9"/>
			<path class="st0" d="M-110-225.9"/>
		</g>
	</g>
	<g transform="translate(183,369)">
		<g>
			<rect x="-80.1" y="-223.1" class="st1" width="1.2" height="4"/>
		</g>
	</g>
	<g transform="translate(183,369)">
		<g>
			<rect x="-79.3" y="-223.1" class="st1" width="1.2" height="4"/>
		</g>
	</g>
	<g transform="translate(183,369)">
		<g>
			<rect x="-79.3" y="-223.1" class="st1" width="1.2" height="4"/>
		</g>
	</g>
	<g transform="translate(183,369)">
		<g>
			<rect x="-79.3" y="-223.1" class="st1" width="1.6" height="4"/>
		</g>
	</g>
	<g transform="translate(183,369)">
		<g>
			<rect x="-53" y="-223.1" class="st1" width="1.2" height="4"/>
		</g>
	</g>
	<g transform="translate(183,369)">
		<g>
			<rect x="-53" y="-223.1" class="st1" width="1.6" height="4"/>
		</g>
	</g>
	<g transform="translate(183,369)">
		<g>
			<rect x="-18.3" y="-223.1" class="st1" width="1.6" height="4"/>
		</g>
	</g>
	<g transform="translate(183,369)">
		<g>
			<rect x="-18.3" y="-223.1" class="st1" width="1.6" height="4"/>
		</g>
	</g>
	<g transform="translate(183,369)">
		<g>
			<rect x="-8.8" y="-223.1" class="st1" width="1.2" height="4"/>
		</g>
	</g>
	<g transform="translate(183,369)">
		<g>
			<rect x="-0.8" y="-223.1" class="st1" width="1.2" height="4"/>
		</g>
	</g>
	<g transform="translate(183,369)">
		<g>
			<rect x="55.8" y="-223.1" class="st1" width="1.2" height="4"/>
		</g>
	</g>
	<g transform="translate(183,369)">
		<g>
			<rect x="75.3" y="-223.1" class="st1" width="1.2" height="4"/>
		</g>
	</g>
	<g transform="translate(183,369)">
		<g>
			<rect x="75.3" y="-223.1" class="st1" width="1.6" height="4"/>
		</g>
	</g>
	<g transform="translate(183,369)">
		<g>
			<rect x="93.7" y="-223.1" class="st1" width="1.2" height="4"/>
		</g>
	</g>
	<g transform="translate(183,369)">
		<g>
			<rect x="108.8" y="-223.1" class="st1" width="1.2" height="4"/>
		</g>
	</g>
	<g transform="translate(183,369)">
		<g>
			<rect x="108.8" y="-223.1" class="st1" width="1.6" height="4"/>
		</g>
	</g>
	<g transform="translate(183,369)">
		<g>
			<rect x="108.8" y="-223.1" class="st1" width="1.6" height="4"/>
		</g>
	</g>
	<g transform="translate(183,369)">
		<g>
			<rect x="116.8" y="-223.1" class="st1" width="1.2" height="4"/>
		</g>
	</g>
	<g transform="translate(183,369)">
		<g>
			<rect x="118.8" y="-223.1" class="st1" width="1.6" height="4"/>
		</g>
	</g>
	<g transform="translate(183,369)">
		<g>
			<rect x="132.8" y="-223.1" class="st1" width="1.2" height="4"/>
		</g>
	</g>
	<g transform="translate(183,369)">
		<g>
			<rect x="165" y="-223.1" class="st1" width="1.2" height="4"/>
		</g>
	</g>
	<g transform="translate(183,369)">
		<g>
			<rect x="168.2" y="-223.1" class="st1" width="1.6" height="4"/>
		</g>
	</g>
	<g transform="translate(183,369)">
		<g>
			<rect x="186.6" y="-223.1" class="st1" width="1.2" height="4"/>
		</g>
	</g>
	<g transform="translate(183,369)">
		<g>
			<rect x="203.3" y="-223.1" class="st1" width="1.2" height="4"/>
		</g>
	</g>
	<g transform="translate(183,369)">
		<g>
			<rect x="213.3" y="-223.1" class="st1" width="1.2" height="4"/>
		</g>
	</g>
	<g transform="translate(183,369)">
		<g>
			<rect x="244" y="-223.1" class="st1" width="1.6" height="4"/>
		</g>
	</g>
	<g transform="translate(183,369)">
		<g>
			<rect x="244" y="-223.1" class="st1" width="1.6" height="4"/>
		</g>
	</g>
	<g transform="translate(183,369)">
		<g>
			<rect x="252" y="-223.1" class="st1" width="1.6" height="4"/>
		</g>
	</g>
	<g transform="translate(183,369)">
		<g>
			<rect x="252.4" y="-223.1" class="st1" width="1.2" height="4"/>
		</g>
	</g>
	<g transform="translate(183,369)">
		<g>
			<rect x="271.5" y="-223.1" class="st1" width="1.6" height="4"/>
		</g>
	</g>
	<g transform="translate(183,369)">
		<g>
			<rect x="290.2" y="-223.1" class="st1" width="1.6" height="4"/>
		</g>
	</g>
	<g transform="translate(183,369)">
		<g>
			<rect x="312.6" y="-223.1" class="st1" width="1.6" height="4"/>
		</g>
	</g>
	<g transform="translate(183,369)">
		<g>
			<rect x="318.5" y="-223.1" class="st1" width="1.6" height="4"/>
		</g>
	</g>
	<g transform="translate(183,369)">
		<g>
			<rect x="318.9" y="-223.1" class="st1" width="1.2" height="4"/>
		</g>
	</g>
	<g transform="translate(183,369)">
		<g>
			<rect x="331.7" y="-223.1" class="st1" width="1.2" height="4"/>
		</g>
	</g>
	<g transform="translate(183,369)">
		<g>
			<rect x="331.7" y="-223.1" class="st1" width="1.2" height="4"/>
		</g>
	</g>
	<g transform="translate(183,369)">
		<g>
			<rect x="343.7" y="-223.1" class="st1" width="1.6" height="4"/>
		</g>
	</g>
	<g transform="translate(183,369)">
		<g>
			<rect x="344.1" y="-223.1" class="st1" width="1.2" height="4"/>
		</g>
	</g>
	<g transform="translate(183,369)">
		<g>
			<rect x="358" y="-223.1" class="st1" width="0.8" height="4"/>
		</g>
	</g>
	<g transform="translate(183,369)">
		<g>
			<rect x="358" y="-223.1" class="st1" width="0.8" height="4"/>
		</g>
	</g>
	<g transform="translate(183,369)">
		<g>
			<rect x="358" y="-223.1" class="st1" width="0.8" height="4"/>
		</g>
	</g>
	<g transform="translate(183,369)">
		<g>
			<rect x="-110" y="-195.2" class="st2" width="468.8" height="4"/>
		</g>
	</g>
	<g transform="translate(183,369)">
		<g>
			<text transform="matrix(1 0 0 1 114.6113 -183.2416)" class="st3 st4">regulated</text>
		</g>
	</g>
	<g transform="translate(183,369)">
		<g>
			<rect x="-110" y="-214.1" class="st1" width="25.5" height="5.6"/>
		</g>
	</g>
	<g transform="translate(172,501)">
		<g>
			<line class="st5" x1="-97.4" y1="-343.3" x2="-96.6" y2="-342.5"/>
		</g>
		<g>
			<line class="st5" x1="-97.4" y1="-343.3" x2="-96.6" y2="-344.1"/>
		</g>
		<g>
			<line class="st5" x1="-85.5" y1="-343.3" x2="-84.7" y2="-342.5"/>
		</g>
		<g>
			<line class="st5" x1="-85.5" y1="-343.3" x2="-84.7" y2="-344.1"/>
		</g>
	</g>
	<g transform="translate(183,369)">
		<g>
			<line class="st6" x1="-84.5" y1="-211.3" x2="-51.4" y2="-211.3"/>
		</g>
	</g>
	<g transform="translate(247,501)">
		<g>
			<line class="st7" x1="-142.5" y1="-343.3" x2="-141.7" y2="-342.5"/>
		</g>
		<g>
			<line class="st7" x1="-142.5" y1="-343.3" x2="-141.7" y2="-344.1"/>
		</g>
		<g>
			<line class="st7" x1="-130.6" y1="-343.3" x2="-129.8" y2="-342.5"/>
		</g>
		<g>
			<line class="st7" x1="-130.6" y1="-343.3" x2="-129.8" y2="-344.1"/>
		</g>
		<g>
			<line class="st7" x1="-118.6" y1="-343.3" x2="-117.8" y2="-342.5"/>
		</g>
		<g>
			<line class="st7" x1="-118.6" y1="-343.3" x2="-117.8" y2="-344.1"/>
		</g>
	</g>
	<g transform="translate(183,369)">
		<g>
			<rect x="-51.4" y="-214.1" class="st1" width="14.8" height="5.6"/>
		</g>
	</g>
	<g transform="translate(345,501)">
		<g>
			<line class="st5" x1="-201.5" y1="-343.3" x2="-200.7" y2="-342.5"/>
		</g>
		<g>
			<line class="st5" x1="-201.5" y1="-343.3" x2="-200.7" y2="-344.1"/>
		</g>
	</g>
	<g transform="translate(183,369)">
		<g>
			<line class="st6" x1="-36.7" y1="-211.3" x2="9.6" y2="-211.3"/>
		</g>
	</g>
	<g transform="translate(367,501)">
		<g>
			<line class="st7" x1="-214.7" y1="-343.3" x2="-213.9" y2="-342.5"/>
		</g>
		<g>
			<line class="st7" x1="-214.7" y1="-343.3" x2="-213.9" y2="-344.1"/>
		</g>
		<g>
			<line class="st7" x1="-202.7" y1="-343.3" x2="-201.9" y2="-342.5"/>
		</g>
		<g>
			<line class="st7" x1="-202.7" y1="-343.3" x2="-201.9" y2="-344.1"/>
		</g>
		<g>
			<line class="st7" x1="-190.8" y1="-343.3" x2="-190" y2="-342.5"/>
		</g>
		<g>
			<line class="st7" x1="-190.8" y1="-343.3" x2="-190" y2="-344.1"/>
		</g>
		<g>
			<line class="st7" x1="-178.8" y1="-343.3" x2="-178" y2="-342.5"/>
		</g>
		<g>
			<line class="st7" x1="-178.8" y1="-343.3" x2="-178" y2="-344.1"/>
		</g>
	</g>
	<g transform="translate(183,369)">
		<g>
			<rect x="9.6" y="-214.1" class="st1" width="15.5" height="5.6"/>
		</g>
	</g>
	<g transform="translate(498,501)">
		<g>
			<line class="st5" x1="-293.5" y1="-343.3" x2="-292.7" y2="-342.5"/>
		</g>
		<g>
			<line class="st5" x1="-293.5" y1="-343.3" x2="-292.7" y2="-344.1"/>
		</g>
	</g>
	<g transform="translate(183,369)">
		<g>
			<line class="st6" x1="25.1" y1="-211.3" x2="28.3" y2="-211.3"/>
		</g>
	</g>
	<g transform="translate(183,369)">
		<g>
			<rect x="28.3" y="-214.1" class="st1" width="8.8" height="5.6"/>
		</g>
	</g>
	<g transform="translate(183,369)">
		<g>
			<line class="st6" x1="37.1" y1="-211.3" x2="134" y2="-211.3"/>
		</g>
	</g>
	<g transform="translate(552,501)">
		<g>
			<line class="st7" x1="-325.9" y1="-343.3" x2="-325.2" y2="-342.5"/>
		</g>
		<g>
			<line class="st7" x1="-325.9" y1="-343.3" x2="-325.2" y2="-344.1"/>
		</g>
		<g>
			<line class="st7" x1="-314" y1="-343.3" x2="-313.2" y2="-342.5"/>
		</g>
		<g>
			<line class="st7" x1="-314" y1="-343.3" x2="-313.2" y2="-344.1"/>
		</g>
		<g>
			<line class="st7" x1="-302" y1="-343.3" x2="-301.2" y2="-342.5"/>
		</g>
		<g>
			<line class="st7" x1="-302" y1="-343.3" x2="-301.2" y2="-344.1"/>
		</g>
		<g>
			<line class="st7" x1="-290.1" y1="-343.3" x2="-289.3" y2="-342.5"/>
		</g>
		<g>
			<line class="st7" x1="-290.1" y1="-343.3" x2="-289.3" y2="-344.1"/>
		</g>
		<g>
			<line class="st7" x1="-278.1" y1="-343.3" x2="-277.3" y2="-342.5"/>
		</g>
		<g>
			<line class="st7" x1="-278.1" y1="-343.3" x2="-277.3" y2="-344.1"/>
		</g>
		<g>
			<line class="st7" x1="-266.1" y1="-343.3" x2="-265.3" y2="-342.5"/>
		</g>
		<g>
			<line class="st7" x1="-266.1" y1="-343.3" x2="-265.3" y2="-344.1"/>
		</g>
		<g>
			<line class="st7" x1="-254.2" y1="-343.3" x2="-253.4" y2="-342.5"/>
		</g>
		<g>
			<line class="st7" x1="-254.2" y1="-343.3" x2="-253.4" y2="-344.1"/>
		</g>
		<g>
			<line class="st7" x1="-242.2" y1="-343.3" x2="-241.4" y2="-342.5"/>
		</g>
		<g>
			<line class="st7" x1="-242.2" y1="-343.3" x2="-241.4" y2="-344.1"/>
		</g>
	</g>
	<g transform="translate(183,369)">
		<g>
			<rect x="134" y="-214.1" class="st1" width="17.1" height="5.6"/>
		</g>
	</g>
	<g transform="translate(810,501)">
		<g>
			<line class="st5" x1="-481.1" y1="-343.3" x2="-480.3" y2="-342.5"/>
		</g>
		<g>
			<line class="st5" x1="-481.1" y1="-343.3" x2="-480.3" y2="-344.1"/>
		</g>
	</g>
	<g transform="translate(183,369)">
		<g>
			<text transform="matrix(1 0 0 1 11.1572 -201.2948)" class="st3 st4">Y73F8A.1</text>
		</g>
	</g>
	<g transform="translate(183,369)">
		<g>
			<rect x="234.8" y="-214.1" class="st1" width="1.2" height="5.6"/>
		</g>
	</g>
	<g transform="translate(183,369)">
		<g>
			<line class="st6" x1="236" y1="-211.3" x2="358.4" y2="-211.3"/>
		</g>
	</g>
	<g transform="translate(1051,501)">
		<g>
			<line class="st7" x1="-626" y1="-343.3" x2="-626.8" y2="-342.5"/>
		</g>
		<g>
			<line class="st7" x1="-626" y1="-343.3" x2="-626.8" y2="-344.1"/>
		</g>
		<g>
			<line class="st7" x1="-614" y1="-343.3" x2="-614.8" y2="-342.5"/>
		</g>
		<g>
			<line class="st7" x1="-614" y1="-343.3" x2="-614.8" y2="-344.1"/>
		</g>
		<g>
			<line class="st7" x1="-602.1" y1="-343.3" x2="-602.9" y2="-342.5"/>
		</g>
		<g>
			<line class="st7" x1="-602.1" y1="-343.3" x2="-602.9" y2="-344.1"/>
		</g>
		<g>
			<line class="st7" x1="-590.1" y1="-343.3" x2="-590.9" y2="-342.5"/>
		</g>
		<g>
			<line class="st7" x1="-590.1" y1="-343.3" x2="-590.9" y2="-344.1"/>
		</g>
		<g>
			<line class="st7" x1="-578.2" y1="-343.3" x2="-579" y2="-342.5"/>
		</g>
		<g>
			<line class="st7" x1="-578.2" y1="-343.3" x2="-579" y2="-344.1"/>
		</g>
		<g>
			<line class="st7" x1="-566.2" y1="-343.3" x2="-567" y2="-342.5"/>
		</g>
		<g>
			<line class="st7" x1="-566.2" y1="-343.3" x2="-567" y2="-344.1"/>
		</g>
	</g>
	<g transform="translate(183,369)">
		<g>
			<rect x="302.2" y="-214.1" class="st1" width="2.8" height="5.6"/>
		</g>
	</g>
	<g transform="translate(183,369)">
		<g>
			<path class="st6" d="M305-211.3"/>
		</g>
	</g>
	<g transform="translate(1224,501)">
		<g>
			<line class="st7" x1="-730" y1="-343.3" x2="-730.8" y2="-342.5"/>
		</g>
		<g>
			<line class="st7" x1="-730" y1="-343.3" x2="-730.8" y2="-344.1"/>
		</g>
		<g>
			<line class="st7" x1="-718.1" y1="-343.3" x2="-718.9" y2="-342.5"/>
		</g>
		<g>
			<line class="st7" x1="-718.1" y1="-343.3" x2="-718.9" y2="-344.1"/>
		</g>
		<g>
			<line class="st7" x1="-706.1" y1="-343.3" x2="-706.9" y2="-342.5"/>
		</g>
		<g>
			<line class="st7" x1="-706.1" y1="-343.3" x2="-706.9" y2="-344.1"/>
		</g>
		<g>
			<line class="st7" x1="-694.2" y1="-343.3" x2="-695" y2="-342.5"/>
		</g>
		<g>
			<line class="st7" x1="-694.2" y1="-343.3" x2="-695" y2="-344.1"/>
		</g>
	</g>
	<g transform="translate(183,369)">
		<g>
			<text transform="matrix(1 0 0 1 287.4424 -201.2948)" class="st3 st4">Y73F8A.2</text>
		</g>
	</g>
	<g transform="translate(183,369)">
		<g>
			<path class="st0" d="M358.8-216"/>
			<path class="st0" d="M-110-216"/>
		</g>
		<g>
			<path class="st0" d="M358.8-200.1"/>
			<path class="st0" d="M-110-200.1"/>
		</g>
	</g>
	<g transform="translate(0,130)">
		<g>
			<defs>
				<path id="SVGID_1_" d="M548.2-78.2"/>
			</defs>
			<defs>
				<path id="SVGID_2_" d="M548.2,15.5"/>
			</defs>
			<clipPath id="SVGID_3_">
				<use xlink:href="#SVGID_1_"  style="overflow:visible;"/>
			</clipPath>
			<clipPath id="SVGID_4_" class="st8">
				<use xlink:href="#SVGID_2_"  style="overflow:visible;"/>
			</clipPath>
			<line class="st9" x1="0" y1="15.5" x2="0" y2="-78.2"/>
			<path class="st9" d="M548.2,15.5"/>
			<path class="st9" d="M548.2-78.2"/>
		</g>
	</g>
	<g transform="translate(0,130)">
		<g>
			<defs>
				<path id="SVGID_5_" d="M548.2-78.2"/>
			</defs>
			<defs>
				<path id="SVGID_6_" d="M548.2,15.5"/>
			</defs>
			<clipPath id="SVGID_7_">
				<use xlink:href="#SVGID_5_"  style="overflow:visible;"/>
			</clipPath>
			<clipPath id="SVGID_8_" class="st10">
				<use xlink:href="#SVGID_6_"  style="overflow:visible;"/>
			</clipPath>
			<path class="st11" d="M0,15.5v-93.7 M548.2,15.5 M548.2-78.2 M0.4,15.1v-92.9 M547.8,15.1 M547.8-77.8"/>
		</g>
	</g>
	<g transform="translate(1,131)">
		<g>
			<line class="st12" x1="-0.6" y1="14.1" x2="-0.6" y2="-78.8"/>
		</g>
	</g>
	<g transform="translate(183,131)">
		<g>
			<line class="st13" x1="-159.1" y1="-62.8" x2="12" y2="-62.8"/>
		</g>
		<g>
			<line class="st13" x1="11.2" y1="-62.8" x2="18.3" y2="-62.8"/>
		</g>
		<g>
			<line class="st13" x1="17.5" y1="-62.8" x2="18.7" y2="-62.8"/>
		</g>
		<g>
			<line class="st13" x1="18.3" y1="-62.8" x2="25.5" y2="-62.8"/>
		</g>
		<g>
			<line class="st13" x1="24.7" y1="-62.8" x2="116.8" y2="-62.8"/>
		</g>
		<g>
			<rect x="116.4" y="-65.6" class="st1" width="2" height="2.8"/>
		</g>
		<g>
			<rect x="117.6" y="-66" class="st1" width="1.2" height="3.2"/>
		</g>
		<g>
			<rect x="118" y="-66" class="st1" width="2" height="3.2"/>
		</g>
		<g>
			<rect x="119.6" y="-66" class="st1" width="3.6" height="3.2"/>
		</g>
		<g>
			<rect x="122.8" y="-64.8" class="st1" width="1.2" height="2"/>
		</g>
		<g>
			<rect x="123.6" y="-63.2" class="st1" width="2" height="0.4"/>
		</g>
		<g>
			<line class="st13" x1="124.8" y1="-62.8" x2="126" y2="-62.8"/>
		</g>
		<g>
			<line class="st13" x1="125.6" y1="-62.8" x2="128" y2="-62.8"/>
		</g>
		<g>
			<rect x="127.2" y="-63.2" class="st1" width="1.2" height="0.4"/>
		</g>
		<g>
			<rect x="128" y="-63.2" class="st1" width="2" height="0.4"/>
		</g>
		<g>
			<rect x="129.2" y="-63.2" class="st1" width="2" height="0.4"/>
		</g>
		<g>
			<rect x="130.8" y="-64" class="st1" width="2.4" height="1.2"/>
		</g>
		<g>
			<rect x="132.8" y="-64" class="st1" width="2.4" height="1.2"/>
		</g>
		<g>
			<rect x="134.3" y="-63.6" class="st1" width="1.2" height="0.8"/>
		</g>
		<g>
			<rect x="135.1" y="-63.6" class="st1" width="2" height="0.8"/>
		</g>
		<g>
			<rect x="136.3" y="-63.2" class="st1" width="2" height="0.4"/>
		</g>
		<g>
			<line class="st13" x1="137.9" y1="-62.8" x2="143.1" y2="-62.8"/>
		</g>
		<g>
			<line class="st13" x1="142.3" y1="-62.8" x2="146.3" y2="-62.8"/>
		</g>
		<g>
			<rect x="145.5" y="-63.2" class="st1" width="3.2" height="0.4"/>
		</g>
		<g>
			<rect x="148.3" y="-63.2" class="st1" width="1.2" height="0.4"/>
		</g>
		<g>
			<rect x="149.1" y="-63.6" class="st1" width="1.2" height="0.8"/>
		</g>
		<g>
			<rect x="149.5" y="-63.2" class="st1" width="1.2" height="0.4"/>
		</g>
		<g>
			<rect x="150.3" y="-63.6" class="st1" width="3.2" height="0.8"/>
		</g>
		<g>
			<rect x="152.7" y="-63.2" class="st1" width="2" height="0.4"/>
		</g>
		<g>
			<rect x="154.3" y="-63.6" class="st1" width="1.2" height="0.8"/>
		</g>
		<g>
			<rect x="154.7" y="-64" class="st1" width="1.2" height="1.2"/>
		</g>
		<g>
			<rect x="155.5" y="-63.6" class="st1" width="1.2" height="0.8"/>
		</g>
		<g>
			<rect x="156.3" y="-63.6" class="st1" width="2" height="0.8"/>
		</g>
		<g>
			<rect x="157.5" y="-63.2" class="st1" width="1.2" height="0.4"/>
		</g>
		<g>
			<rect x="157.9" y="-63.6" class="st1" width="4" height="0.8"/>
		</g>
		<g>
			<rect x="161.5" y="-63.2" class="st1" width="1.2" height="0.4"/>
		</g>
		<g>
			<line class="st13" x1="161.9" y1="-62.8" x2="164.2" y2="-62.8"/>
		</g>
		<g>
			<rect x="163.9" y="-63.6" class="st1" width="2" height="0.8"/>
		</g>
		<g>
			<rect x="165" y="-63.6" class="st1" width="2.4" height="0.8"/>
		</g>
		<g>
			<rect x="167" y="-63.2" class="st1" width="4" height="0.4"/>
		</g>
		<g>
			<line class="st13" x1="170.6" y1="-62.8" x2="236" y2="-62.8"/>
		</g>
		<g>
			<line class="st13" x1="235.2" y1="-62.8" x2="243.2" y2="-62.8"/>
		</g>
		<g>
			<line class="st13" x1="242.4" y1="-62.8" x2="399.5" y2="-62.8"/>
		</g>
	</g>
	<g transform="translate(183,131)">
		<g>
			<text transform="matrix(1 0 0 1 -108.0479 -74.786)" class="st3 st14">[0 - 1.90]</text>
		</g>
	</g>
	<g transform="translate(183,131)">
		<g>
			<line class="st6" x1="-110" y1="-62.8" x2="358.8" y2="-62.8"/>
		</g>
		<g>
			<line class="st13" x1="-159.1" y1="-46.9" x2="-58.2" y2="-46.9"/>
		</g>
		<g>
			<line class="st13" x1="-59" y1="-46.9" x2="-51.8" y2="-46.9"/>
		</g>
		<g>
			<line class="st13" x1="-52.2" y1="-46.9" x2="-43.1" y2="-46.9"/>
		</g>
		<g>
			<line class="st13" x1="-43.9" y1="-46.9" x2="-35.9" y2="-46.9"/>
		</g>
		<g>
			<line class="st13" x1="-36.7" y1="-46.9" x2="-33.5" y2="-46.9"/>
		</g>
		<g>
			<line class="st13" x1="-33.9" y1="-46.9" x2="-26.7" y2="-46.9"/>
		</g>
		<g>
			<line class="st13" x1="-27.5" y1="-46.9" x2="-26.3" y2="-46.9"/>
		</g>
		<g>
			<line class="st13" x1="-26.7" y1="-46.9" x2="-22.7" y2="-46.9"/>
		</g>
		<g>
			<line class="st13" x1="-23.5" y1="-46.9" x2="-19.5" y2="-46.9"/>
		</g>
		<g>
			<line class="st13" x1="-20.3" y1="-46.9" x2="-16.4" y2="-46.9"/>
		</g>
		<g>
			<line class="st13" x1="-17.1" y1="-46.9" x2="14.7" y2="-46.9"/>
		</g>
		<g>
			<line class="st13" x1="14.3" y1="-46.9" x2="18.3" y2="-46.9"/>
		</g>
		<g>
			<line class="st13" x1="17.5" y1="-46.9" x2="21.5" y2="-46.9"/>
		</g>
		<g>
			<line class="st13" x1="20.7" y1="-46.9" x2="23.1" y2="-46.9"/>
		</g>
		<g>
			<line class="st13" x1="22.7" y1="-46.9" x2="25.1" y2="-46.9"/>
		</g>
		<g>
			<line class="st13" x1="24.7" y1="-46.9" x2="25.9" y2="-46.9"/>
		</g>
		<g>
			<line class="st13" x1="25.5" y1="-46.9" x2="28.7" y2="-46.9"/>
		</g>
		<g>
			<line class="st13" x1="27.9" y1="-46.9" x2="33.9" y2="-46.9"/>
		</g>
		<g>
			<line class="st13" x1="33.1" y1="-46.9" x2="116.8" y2="-46.9"/>
		</g>
		<g>
			<rect x="116.4" y="-55.6" class="st1" width="1.2" height="8.8"/>
		</g>
		<g>
			<rect x="116.8" y="-55.6" class="st1" width="2" height="8.8"/>
		</g>
		<g>
			<rect x="118" y="-56" class="st1" width="2" height="9.2"/>
		</g>
		<g>
			<rect x="119.6" y="-56" class="st1" width="2.4" height="9.2"/>
		</g>
		<g>
			<rect x="121.6" y="-56" class="st1" width="1.2" height="9.2"/>
		</g>
		<g>
			<rect x="122" y="-56" class="st1" width="1.2" height="9.2"/>
		</g>
		<g>
			<rect x="122.8" y="-50.9" class="st1" width="1.2" height="4"/>
		</g>
		<g>
			<line class="st13" x1="123.6" y1="-46.9" x2="124.8" y2="-46.9"/>
		</g>
		<g>
			<line class="st13" x1="124" y1="-46.9" x2="126" y2="-46.9"/>
		</g>
		<g>
			<line class="st13" x1="125.6" y1="-46.9" x2="128" y2="-46.9"/>
		</g>
		<g>
			<rect x="127.2" y="-47.3" class="st1" width="1.2" height="0.4"/>
		</g>
		<g>
			<rect x="128" y="-47.7" class="st1" width="1.2" height="0.8"/>
		</g>
		<g>
			<rect x="128.8" y="-47.7" class="st1" width="1.2" height="0.8"/>
		</g>
		<g>
			<rect x="129.2" y="-48.1" class="st1" width="1.2" height="1.2"/>
		</g>
		<g>
			<rect x="130" y="-48.1" class="st1" width="1.2" height="1.2"/>
		</g>
		<g>
			<rect x="130.8" y="-50.1" class="st1" width="2" height="3.2"/>
		</g>
		<g>
			<rect x="132" y="-50.1" class="st1" width="2" height="3.2"/>
		</g>
		<g>
			<rect x="133.2" y="-50.5" class="st1" width="1.2" height="3.6"/>
		</g>
		<g>
			<rect x="134" y="-50.5" class="st1" width="1.2" height="3.6"/>
		</g>
		<g>
			<rect x="134.3" y="-49.7" class="st1" width="1.2" height="2.8"/>
		</g>
		<g>
			<rect x="135.1" y="-49.7" class="st1" width="1.2" height="2.8"/>
		</g>
		<g>
			<rect x="135.9" y="-49.7" class="st1" width="1.2" height="2.8"/>
		</g>
		<g>
			<rect x="136.3" y="-49.3" class="st1" width="2" height="2.4"/>
		</g>
		<g>
			<rect x="137.9" y="-47.7" class="st1" width="1.2" height="0.8"/>
		</g>
		<g>
			<rect x="138.3" y="-47.7" class="st1" width="1.2" height="0.8"/>
		</g>
		<g>
			<rect x="139.1" y="-47.7" class="st1" width="2" height="0.8"/>
		</g>
		<g>
			<rect x="140.3" y="-47.3" class="st1" width="2.4" height="0.4"/>
		</g>
		<g>
			<rect x="142.3" y="-47.3" class="st1" width="2" height="0.4"/>
		</g>
		<g>
			<rect x="143.5" y="-47.3" class="st1" width="1.2" height="0.4"/>
		</g>
		<g>
			<rect x="144.3" y="-47.3" class="st1" width="1.2" height="0.4"/>
		</g>
		<g>
			<rect x="145.1" y="-47.3" class="st1" width="1.2" height="0.4"/>
		</g>
		<g>
			<rect x="145.5" y="-47.7" class="st1" width="1.2" height="0.8"/>
		</g>
		<g>
			<rect x="146.3" y="-48.1" class="st1" width="2.4" height="1.2"/>
		</g>
		<g>
			<rect x="148.3" y="-48.5" class="st1" width="1.2" height="1.6"/>
		</g>
		<g>
			<rect x="149.1" y="-48.5" class="st1" width="2" height="1.6"/>
		</g>
		<g>
			<rect x="150.3" y="-48.9" class="st1" width="1.2" height="2"/>
		</g>
		<g>
			<rect x="150.7" y="-48.9" class="st1" width="1.2" height="2"/>
		</g>
		<g>
			<rect x="151.5" y="-49.3" class="st1" width="2" height="2.4"/>
		</g>
		<g>
			<rect x="152.7" y="-48.1" class="st1" width="1.2" height="1.2"/>
		</g>
		<g>
			<rect x="153.5" y="-48.1" class="st1" width="1.2" height="1.2"/>
		</g>
		<g>
			<rect x="154.3" y="-48.5" class="st1" width="1.2" height="1.6"/>
		</g>
		<g>
			<rect x="154.7" y="-48.9" class="st1" width="1.2" height="2"/>
		</g>
		<g>
			<rect x="155.5" y="-48.9" class="st1" width="1.2" height="2"/>
		</g>
		<g>
			<rect x="156.3" y="-48.5" class="st1" width="2" height="1.6"/>
		</g>
		<g>
			<rect x="157.5" y="-48.1" class="st1" width="2" height="1.2"/>
		</g>
		<g>
			<rect x="158.7" y="-48.1" class="st1" width="1.2" height="1.2"/>
		</g>
		<g>
			<rect x="159.5" y="-48.5" class="st1" width="1.2" height="1.6"/>
		</g>
		<g>
			<rect x="159.9" y="-48.5" class="st1" width="1.2" height="1.6"/>
		</g>
		<g>
			<rect x="160.7" y="-48.5" class="st1" width="1.2" height="1.6"/>
		</g>
		<g>
			<rect x="161.5" y="-48.1" class="st1" width="1.2" height="1.2"/>
		</g>
		<g>
			<rect x="161.9" y="-47.7" class="st1" width="1.2" height="0.8"/>
		</g>
		<g>
			<rect x="162.7" y="-47.3" class="st1" width="2" height="0.4"/>
		</g>
		<g>
			<rect x="163.9" y="-48.1" class="st1" width="2" height="1.2"/>
		</g>
		<g>
			<rect x="165" y="-48.1" class="st1" width="1.2" height="1.2"/>
		</g>
		<g>
			<rect x="165.8" y="-48.1" class="st1" width="1.2" height="1.2"/>
		</g>
		<g>
			<rect x="166.6" y="-48.1" class="st1" width="2" height="1.2"/>
		</g>
		<g>
			<rect x="167.8" y="-47.7" class="st1" width="1.2" height="0.8"/>
		</g>
		<g>
			<rect x="168.6" y="-47.7" class="st1" width="2.4" height="0.8"/>
		</g>
		<g>
			<rect x="170.6" y="-47.3" class="st1" width="1.2" height="0.4"/>
		</g>
		<g>
			<line class="st13" x1="171" y1="-46.9" x2="172.2" y2="-46.9"/>
		</g>
		<g>
			<rect x="171.8" y="-47.3" class="st1" width="1.2" height="0.4"/>
		</g>
		<g>
			<line class="st13" x1="172.6" y1="-46.9" x2="173.8" y2="-46.9"/>
		</g>
		<g>
			<line class="st13" x1="173" y1="-46.9" x2="176.2" y2="-46.9"/>
		</g>
		<g>
			<rect x="175.8" y="-47.3" class="st1" width="2.4" height="0.4"/>
		</g>
		<g>
			<line class="st13" x1="177.8" y1="-46.9" x2="179" y2="-46.9"/>
		</g>
		<g>
			<line class="st13" x1="178.2" y1="-46.9" x2="183.4" y2="-46.9"/>
		</g>
		<g>
			<line class="st13" x1="183" y1="-46.9" x2="186.2" y2="-46.9"/>
		</g>
		<g>
			<line class="st13" x1="185.4" y1="-46.9" x2="190.6" y2="-46.9"/>
		</g>
		<g>
			<line class="st13" x1="190.2" y1="-46.9" x2="193.4" y2="-46.9"/>
		</g>
		<g>
			<line class="st13" x1="192.6" y1="-46.9" x2="197.7" y2="-46.9"/>
		</g>
		<g>
			<line class="st13" x1="197.3" y1="-46.9" x2="209.7" y2="-46.9"/>
		</g>
		<g>
			<line class="st13" x1="208.9" y1="-46.9" x2="216.9" y2="-46.9"/>
		</g>
		<g>
			<line class="st13" x1="216.1" y1="-46.9" x2="217.3" y2="-46.9"/>
		</g>
		<g>
			<line class="st13" x1="216.9" y1="-46.9" x2="224.8" y2="-46.9"/>
		</g>
		<g>
			<line class="st13" x1="224.1" y1="-46.9" x2="232" y2="-46.9"/>
		</g>
		<g>
			<line class="st13" x1="231.2" y1="-46.9" x2="399.5" y2="-46.9"/>
		</g>
	</g>
	<g transform="translate(183,131)">
		<g>
			<text transform="matrix(1 0 0 1 -108.0479 -58.8392)" class="st3 st14">[0 - 1.90]</text>
		</g>
	</g>
	<g transform="translate(183,131)">
		<g>
			<line class="st6" x1="-110" y1="-46.9" x2="358.8" y2="-46.9"/>
		</g>
		<g>
			<line class="st13" x1="-159.1" y1="-30.9" x2="117.2" y2="-30.9"/>
		</g>
		<g>
			<rect x="116.4" y="-31.3" class="st1" width="3.2" height="0.4"/>
		</g>
		<g>
			<rect x="118.8" y="-31.7" class="st1" width="1.6" height="0.8"/>
		</g>
		<g>
			<rect x="119.6" y="-31.7" class="st1" width="3.6" height="0.8"/>
		</g>
		<g>
			<line class="st13" x1="122.8" y1="-30.9" x2="126.8" y2="-30.9"/>
		</g>
		<g>
			<line class="st13" x1="126" y1="-30.9" x2="128.4" y2="-30.9"/>
		</g>
		<g>
			<line class="st13" x1="128" y1="-30.9" x2="129.2" y2="-30.9"/>
		</g>
		<g>
			<rect x="128.8" y="-31.3" class="st1" width="2.4" height="0.4"/>
		</g>
		<g>
			<rect x="130.8" y="-31.7" class="st1" width="5.2" height="0.8"/>
		</g>
		<g>
			<rect x="135.1" y="-31.3" class="st1" width="1.2" height="0.4"/>
		</g>
		<g>
			<rect x="135.9" y="-31.3" class="st1" width="2.4" height="0.4"/>
		</g>
		<g>
			<line class="st13" x1="137.9" y1="-30.9" x2="146.3" y2="-30.9"/>
		</g>
		<g>
			<line class="st13" x1="145.5" y1="-30.9" x2="153.5" y2="-30.9"/>
		</g>
		<g>
			<line class="st13" x1="152.7" y1="-30.9" x2="154.7" y2="-30.9"/>
		</g>
		<g>
			<line class="st13" x1="154.3" y1="-30.9" x2="162.3" y2="-30.9"/>
		</g>
		<g>
			<line class="st13" x1="161.5" y1="-30.9" x2="176.6" y2="-30.9"/>
		</g>
		<g>
			<line class="st13" x1="175.8" y1="-30.9" x2="183.8" y2="-30.9"/>
		</g>
		<g>
			<line class="st13" x1="183" y1="-30.9" x2="399.5" y2="-30.9"/>
		</g>
	</g>
	<g transform="translate(183,131)">
		<g>
			<text transform="matrix(1 0 0 1 -108.0479 -42.892)" class="st3 st14">[0 - 1.90]</text>
		</g>
	</g>
	<g transform="translate(183,131)">
		<g>
			<line class="st6" x1="-110" y1="-30.9" x2="358.8" y2="-30.9"/>
		</g>
		<g>
			<line class="st13" x1="-159.1" y1="-15" x2="-58.2" y2="-15"/>
		</g>
		<g>
			<line class="st13" x1="-59" y1="-15" x2="-51.8" y2="-15"/>
		</g>
		<g>
			<line class="st13" x1="-52.2" y1="-15" x2="-51" y2="-15"/>
		</g>
		<g>
			<line class="st13" x1="-51.8" y1="-15" x2="-43.5" y2="-15"/>
		</g>
		<g>
			<line class="st13" x1="-43.9" y1="-15" x2="-35.9" y2="-15"/>
		</g>
		<g>
			<line class="st13" x1="-36.7" y1="-15" x2="-33.5" y2="-15"/>
		</g>
		<g>
			<line class="st13" x1="-33.9" y1="-15" x2="-25.9" y2="-15"/>
		</g>
		<g>
			<line class="st13" x1="-26.7" y1="-15" x2="-23.5" y2="-15"/>
		</g>
		<g>
			<line class="st13" x1="-24.3" y1="-15" x2="-16.4" y2="-15"/>
		</g>
		<g>
			<line class="st13" x1="-17.1" y1="-15" x2="-9.2" y2="-15"/>
		</g>
		<g>
			<line class="st13" x1="-10" y1="-15" x2="-6" y2="-15"/>
		</g>
		<g>
			<line class="st13" x1="-6.8" y1="-15" x2="-2.4" y2="-15"/>
		</g>
		<g>
			<line class="st13" x1="-2.8" y1="-15" x2="1.2" y2="-15"/>
		</g>
		<g>
			<line class="st13" x1="0.4" y1="-15" x2="4.4" y2="-15"/>
		</g>
		<g>
			<line class="st13" x1="4" y1="-15" x2="12" y2="-15"/>
		</g>
		<g>
			<line class="st13" x1="11.2" y1="-15" x2="17.5" y2="-15"/>
		</g>
		<g>
			<line class="st13" x1="16.7" y1="-15" x2="17.9" y2="-15"/>
		</g>
		<g>
			<line class="st13" x1="17.5" y1="-15" x2="24.7" y2="-15"/>
		</g>
		<g>
			<line class="st13" x1="23.9" y1="-15" x2="25.1" y2="-15"/>
		</g>
		<g>
			<line class="st13" x1="24.7" y1="-15" x2="116.8" y2="-15"/>
		</g>
		<g>
			<rect x="116.4" y="-26.9" class="st1" width="1.2" height="12"/>
		</g>
		<g>
			<rect x="116.8" y="-26.9" class="st1" width="1.2" height="12"/>
		</g>
		<g>
			<rect x="117.6" y="-26.9" class="st1" width="1.2" height="12"/>
		</g>
		<g>
			<rect x="118" y="-27.3" class="st1" width="2" height="12.4"/>
		</g>
		<g>
			<rect x="119.6" y="-27.3" class="st1" width="0.8" height="12.4"/>
		</g>
		<g>
			<rect x="119.6" y="-27.3" class="st1" width="0.8" height="12.4"/>
		</g>
		<g>
			<rect x="120" y="-27.7" class="st1" width="3.2" height="12.8"/>
		</g>
		<g>
			<rect x="122.8" y="-21" class="st1" width="1.2" height="6"/>
		</g>
		<g>
			<rect x="123.6" y="-15.4" class="st1" width="1.2" height="0.4"/>
		</g>
		<g>
			<rect x="124" y="-15.4" class="st1" width="1.2" height="0.4"/>
		</g>
		<g>
			<line class="st13" x1="124.8" y1="-15" x2="127.2" y2="-15"/>
		</g>
		<g>
			<line class="st13" x1="126.8" y1="-15" x2="128" y2="-15"/>
		</g>
		<g>
			<rect x="127.2" y="-15.8" class="st1" width="1.2" height="0.8"/>
		</g>
		<g>
			<rect x="128" y="-15.8" class="st1" width="1.2" height="0.8"/>
		</g>
		<g>
			<rect x="128.8" y="-16.2" class="st1" width="1.2" height="1.2"/>
		</g>
		<g>
			<rect x="129.2" y="-16.6" class="st1" width="2" height="1.6"/>
		</g>
		<g>
			<rect x="130.8" y="-18.2" class="st1" width="2" height="3.2"/>
		</g>
		<g>
			<rect x="132" y="-18.2" class="st1" width="1.2" height="3.2"/>
		</g>
		<g>
			<rect x="132.8" y="-18.2" class="st1" width="1.2" height="3.2"/>
		</g>
		<g>
			<rect x="133.2" y="-18.6" class="st1" width="1.2" height="3.6"/>
		</g>
		<g>
			<rect x="134" y="-18.6" class="st1" width="1.2" height="3.6"/>
		</g>
		<g>
			<rect x="134.3" y="-17.8" class="st1" width="1.2" height="2.8"/>
		</g>
		<g>
			<rect x="135.1" y="-17.8" class="st1" width="1.2" height="2.8"/>
		</g>
		<g>
			<rect x="135.9" y="-17.8" class="st1" width="1.2" height="2.8"/>
		</g>
		<g>
			<rect x="136.3" y="-17.4" class="st1" width="1.2" height="2.4"/>
		</g>
		<g>
			<rect x="137.1" y="-17.8" class="st1" width="1.2" height="2.8"/>
		</g>
		<g>
			<rect x="137.9" y="-16.2" class="st1" width="1.2" height="1.2"/>
		</g>
		<g>
			<rect x="138.3" y="-16.6" class="st1" width="1.2" height="1.6"/>
		</g>
		<g>
			<rect x="139.1" y="-16.6" class="st1" width="1.2" height="1.6"/>
		</g>
		<g>
			<rect x="139.9" y="-16.6" class="st1" width="1.2" height="1.6"/>
		</g>
		<g>
			<rect x="140.3" y="-16.2" class="st1" width="2" height="1.2"/>
		</g>
		<g>
			<rect x="141.5" y="-16.2" class="st1" width="1.2" height="1.2"/>
		</g>
		<g>
			<rect x="142.3" y="-16.2" class="st1" width="1.2" height="1.2"/>
		</g>
		<g>
			<rect x="143.1" y="-16.2" class="st1" width="1.2" height="1.2"/>
		</g>
		<g>
			<rect x="143.5" y="-16.2" class="st1" width="1.2" height="1.2"/>
		</g>
		<g>
			<rect x="144.3" y="-15.8" class="st1" width="1.2" height="0.8"/>
		</g>
		<g>
			<rect x="145.1" y="-15.8" class="st1" width="1.2" height="0.8"/>
		</g>
		<g>
			<rect x="145.5" y="-16.2" class="st1" width="1.2" height="1.2"/>
		</g>
		<g>
			<rect x="146.3" y="-16.2" class="st1" width="1.2" height="1.2"/>
		</g>
		<g>
			<rect x="147.1" y="-16.2" class="st1" width="1.2" height="1.2"/>
		</g>
		<g>
			<rect x="147.5" y="-16.2" class="st1" width="1.2" height="1.2"/>
		</g>
		<g>
			<rect x="148.3" y="-16.2" class="st1" width="1.2" height="1.2"/>
		</g>
		<g>
			<rect x="149.1" y="-17" class="st1" width="1.2" height="2"/>
		</g>
		<g>
			<rect x="149.5" y="-17" class="st1" width="1.2" height="2"/>
		</g>
		<g>
			<rect x="150.3" y="-17.4" class="st1" width="2" height="2.4"/>
		</g>
		<g>
			<rect x="151.5" y="-17.8" class="st1" width="2" height="2.8"/>
		</g>
		<g>
			<rect x="152.7" y="-17" class="st1" width="1.2" height="2"/>
		</g>
		<g>
			<rect x="153.5" y="-17" class="st1" width="1.2" height="2"/>
		</g>
		<g>
			<rect x="154.3" y="-18.2" class="st1" width="1.2" height="3.2"/>
		</g>
		<g>
			<rect x="154.7" y="-18.6" class="st1" width="1.2" height="3.6"/>
		</g>
		<g>
			<rect x="155.5" y="-18.6" class="st1" width="1.2" height="3.6"/>
		</g>
		<g>
			<rect x="156.3" y="-17.8" class="st1" width="1.2" height="2.8"/>
		</g>
		<g>
			<rect x="156.7" y="-17.4" class="st1" width="1.2" height="2.4"/>
		</g>
		<g>
			<rect x="157.5" y="-17" class="st1" width="1.2" height="2"/>
		</g>
		<g>
			<rect x="157.9" y="-17.8" class="st1" width="1.2" height="2.8"/>
		</g>
		<g>
			<rect x="158.7" y="-17.4" class="st1" width="1.2" height="2.4"/>
		</g>
		<g>
			<rect x="159.5" y="-17.8" class="st1" width="1.2" height="2.8"/>
		</g>
		<g>
			<rect x="159.9" y="-17.8" class="st1" width="1.2" height="2.8"/>
		</g>
		<g>
			<rect x="160.7" y="-18.2" class="st1" width="1.2" height="3.2"/>
		</g>
		<g>
			<rect x="161.5" y="-17.4" class="st1" width="1.2" height="2.4"/>
		</g>
		<g>
			<rect x="161.9" y="-17" class="st1" width="1.2" height="2"/>
		</g>
		<g>
			<rect x="162.7" y="-16.6" class="st1" width="1.2" height="1.6"/>
		</g>
		<g>
			<rect x="163.5" y="-17" class="st1" width="1.2" height="2"/>
		</g>
		<g>
			<rect x="163.9" y="-18.6" class="st1" width="1.2" height="3.6"/>
		</g>
		<g>
			<rect x="164.6" y="-18.6" class="st1" width="1.2" height="3.6"/>
		</g>
		<g>
			<rect x="165" y="-17.8" class="st1" width="2" height="2.8"/>
		</g>
		<g>
			<rect x="166.6" y="-17.8" class="st1" width="1.2" height="2.8"/>
		</g>
		<g>
			<rect x="167" y="-17.4" class="st1" width="1.2" height="2.4"/>
		</g>
		<g>
			<rect x="167.8" y="-17" class="st1" width="1.2" height="2"/>
		</g>
		<g>
			<rect x="168.6" y="-17" class="st1" width="1.2" height="2"/>
		</g>
		<g>
			<rect x="169" y="-17" class="st1" width="2" height="2"/>
		</g>
		<g>
			<rect x="170.6" y="-15.4" class="st1" width="1.2" height="0.4"/>
		</g>
		<g>
			<rect x="171" y="-15.4" class="st1" width="2" height="0.4"/>
		</g>
		<g>
			<rect x="172.6" y="-15.4" class="st1" width="1.2" height="0.4"/>
		</g>
		<g>
			<rect x="173" y="-15.4" class="st1" width="1.2" height="0.4"/>
		</g>
		<g>
			<line class="st13" x1="173.8" y1="-15" x2="176.2" y2="-15"/>
		</g>
		<g>
			<rect x="175.8" y="-15.8" class="st1" width="1.2" height="0.8"/>
		</g>
		<g>
			<rect x="176.2" y="-15.4" class="st1" width="2" height="0.4"/>
		</g>
		<g>
			<rect x="177.8" y="-15.4" class="st1" width="1.2" height="0.4"/>
		</g>
		<g>
			<rect x="178.2" y="-15.4" class="st1" width="5.2" height="0.4"/>
		</g>
		<g>
			<line class="st13" x1="183" y1="-15" x2="200.5" y2="-15"/>
		</g>
		<g>
			<line class="st13" x1="199.7" y1="-15" x2="207.7" y2="-15"/>
		</g>
		<g>
			<line class="st13" x1="206.9" y1="-15" x2="208.9" y2="-15"/>
		</g>
		<g>
			<line class="st13" x1="208.5" y1="-15" x2="216.5" y2="-15"/>
		</g>
		<g>
			<line class="st13" x1="215.7" y1="-15" x2="217.7" y2="-15"/>
		</g>
		<g>
			<line class="st13" x1="216.9" y1="-15" x2="222.1" y2="-15"/>
		</g>
		<g>
			<line class="st13" x1="221.3" y1="-15" x2="223.7" y2="-15"/>
		</g>
		<g>
			<line class="st13" x1="223.3" y1="-15" x2="224.5" y2="-15"/>
		</g>
		<g>
			<line class="st13" x1="224.1" y1="-15" x2="228.4" y2="-15"/>
		</g>
		<g>
			<line class="st13" x1="228" y1="-15" x2="230" y2="-15"/>
		</g>
		<g>
			<line class="st13" x1="229.2" y1="-15" x2="231.2" y2="-15"/>
		</g>
		<g>
			<line class="st13" x1="230.4" y1="-15" x2="231.6" y2="-15"/>
		</g>
		<g>
			<line class="st13" x1="231.2" y1="-15" x2="235.6" y2="-15"/>
		</g>
		<g>
			<line class="st13" x1="235.2" y1="-15" x2="237.2" y2="-15"/>
		</g>
		<g>
			<line class="st13" x1="236.4" y1="-15" x2="242.8" y2="-15"/>
		</g>
		<g>
			<line class="st13" x1="242.4" y1="-15" x2="246.4" y2="-15"/>
		</g>
		<g>
			<line class="st13" x1="245.6" y1="-15" x2="253.6" y2="-15"/>
		</g>
		<g>
			<line class="st13" x1="252.8" y1="-15" x2="399.5" y2="-15"/>
		</g>
	</g>
	<g transform="translate(183,131)">
		<g>
			<text transform="matrix(1 0 0 1 -108.0479 -26.9447)" class="st3 st14">[0 - 1.90]</text>
		</g>
	</g>
	<g transform="translate(183,131)">
		<g>
			<line class="st6" x1="-110" y1="-15" x2="358.8" y2="-15"/>
		</g>
		<g>
			<line class="st13" x1="-159.1" y1="1" x2="117.2" y2="1"/>
		</g>
		<g>
			<rect x="116.4" y="0.2" class="st1" width="4" height="0.8"/>
		</g>
		<g>
			<rect x="119.6" y="0.2" class="st1" width="3.6" height="0.8"/>
		</g>
		<g>
			<line class="st13" x1="122.8" y1="1" x2="131.2" y2="1"/>
		</g>
		<g>
			<line class="st13" x1="130.8" y1="1" x2="138.7" y2="1"/>
		</g>
		<g>
			<line class="st13" x1="137.9" y1="1" x2="160.3" y2="1"/>
		</g>
		<g>
			<rect x="159.5" y="0.6" class="st1" width="8" height="0.4"/>
		</g>
		<g>
			<line class="st13" x1="166.6" y1="1" x2="399.5" y2="1"/>
		</g>
	</g>
	<g transform="translate(183,131)">
		<g>
			<text transform="matrix(1 0 0 1 -108.0479 -10.9974)" class="st3 st14">[0 - 1.90]</text>
		</g>
	</g>
	<g transform="translate(183,131)">
		<g>
			<line class="st6" x1="-110" y1="1" x2="358.8" y2="1"/>
		</g>
	</g>
	<g transform="translate(1,131)">
		<g>
			<path class="st12" d="M63.2,14.1"/>
			<path class="st12" d="M63.2-78.8"/>
		</g>
	</g>
	<g transform="translate(1,131)">
		<g>
			<path class="st12" d="M63.2,1"/>
			<path class="st12" d="M63.2-78.8"/>
		</g>
	</g>
	<g transform="translate(1,131)">
		<g>
			<path class="st15" d="M63.2,14.1 M63.2-78.8"/>
		</g>
	</g>
	<g>
		<g>
			<path class="st16" d="M0,51.8V0 M0.4,51.4v-51"/>
		</g>
	</g>
	<g transform="translate(184,118)">
		<g>
			<defs>
				<rect id="SVGID_9_" x="-110.6" y="-71" width="468" height="4"/>
			</defs>
			<clipPath id="SVGID_10_">
				<use xlink:href="#SVGID_9_"  style="overflow:visible;"/>
			</clipPath>
			<rect x="-110.6" y="-71" class="st17" width="468" height="4"/>
		</g>
	</g>
	<g transform="translate(184,118)">
		<g>
			<defs>
				<rect id="SVGID_11_" x="-110.6" y="-71" width="468" height="4"/>
			</defs>
			<clipPath id="SVGID_12_">
				<use xlink:href="#SVGID_11_"  style="overflow:visible;"/>
			</clipPath>
			<rect x="-110.6" y="-71" class="st18" width="468" height="4"/>
		</g>
	</g>
	<g transform="translate(184,52)">
		<g>
			<text transform="matrix(1 0 0 1 -120.6094 -10.9359)" class="st19 st20">15,231,000 bp</text>
		</g>
		<g>
			<line class="st21" x1="-109" y1="-8.9" x2="-109" y2="-5.8"/>
		</g>
		<g>
			<line class="st21" x1="-76.4" y1="-8.9" x2="-76.4" y2="-5.8"/>
		</g>
		<g>
			<text transform="matrix(1 0 0 1 -55.2266 -10.9359)" class="st19 st20">15,232,000 bp</text>
		</g>
		<g>
			<line class="st21" x1="-43.7" y1="-8.9" x2="-43.7" y2="-5.8"/>
		</g>
		<g>
			<line class="st21" x1="-11" y1="-8.9" x2="-11" y2="-5.8"/>
		</g>
		<g>
			<text transform="matrix(1 0 0 1 9.7588 -10.9359)" class="st19 st20">15,233,000 bp</text>
		</g>
		<g>
			<line class="st21" x1="21.3" y1="-8.9" x2="21.3" y2="-5.8"/>
		</g>
		<g>
			<line class="st21" x1="54" y1="-8.9" x2="54" y2="-5.8"/>
		</g>
		<g>
			<text transform="matrix(1 0 0 1 75.1416 -10.9359)" class="st19 st20">15,234,000 bp</text>
		</g>
		<g>
			<line class="st21" x1="86.7" y1="-8.9" x2="86.7" y2="-5.8"/>
		</g>
		<g>
			<line class="st21" x1="119.4" y1="-8.9" x2="119.4" y2="-5.8"/>
		</g>
		<g>
			<text transform="matrix(1 0 0 1 140.5254 -10.9359)" class="st19 st20">15,235,000 bp</text>
		</g>
		<g>
			<line class="st21" x1="152.1" y1="-8.9" x2="152.1" y2="-5.8"/>
		</g>
		<g>
			<line class="st21" x1="184.8" y1="-8.9" x2="184.8" y2="-5.8"/>
		</g>
		<g>
			<text transform="matrix(1 0 0 1 205.9082 -10.9359)" class="st19 st20">15,236,000 bp</text>
		</g>
		<g>
			<line class="st21" x1="217.5" y1="-8.9" x2="217.5" y2="-5.8"/>
		</g>
		<g>
			<line class="st21" x1="250.2" y1="-8.9" x2="250.2" y2="-5.8"/>
		</g>
		<g>
			<text transform="matrix(1 0 0 1 271.292 -10.9359)" class="st19 st20">15,237,000 bp</text>
		</g>
		<g>
			<line class="st21" x1="282.9" y1="-8.9" x2="282.9" y2="-5.8"/>
		</g>
		<g>
			<line class="st21" x1="315.5" y1="-8.9" x2="315.5" y2="-5.8"/>
		</g>
		<g>
			<text transform="matrix(1 0 0 1 336.6758 -10.9359)" class="st19 st20">15,238,000 bp</text>
		</g>
		<g>
			<line class="st21" x1="348.2" y1="-8.9" x2="348.2" y2="-5.8"/>
		</g>
		<g>
			<line class="st21" x1="-110.6" y1="-20.9" x2="109.8" y2="-20.9"/>
		</g>
		<g>
			<polygon points="-110.6,-20.9 -106.7,-19.7 -106.7,-22.1 			"/>
		</g>
		<g>
			<line class="st21" x1="136.9" y1="-20.9" x2="357.4" y2="-20.9"/>
		</g>
		<g>
			<polygon points="357.4,-20.9 353.4,-19.7 353.4,-22.1 			"/>
		</g>
		<g>
			<text transform="matrix(1 0 0 1 113.8135 -18.9096)" class="st19 st22">7,164 bp</text>
		</g>
	</g>
	<g transform="translate(183,369)">
		<g>
			<text transform="matrix(1 0 0 1 115.6107 -225.9403)" class="st3 st4">21UR-1009</text>
		</g>
	</g>
</g>
</svg>
